<svg xmlns="http://www.w3.org/2000/svg" data-name="Layer 1" width="670.52712" height="350.02229" viewBox="0 0 670.52712 350.02229" xmlns:xlink="http://www.w3.org/1999/xlink"><path d="M566.99576,317.31074l-.00047,0c-92.9186,5.91557-162.41935,87.678-153.30727,180.33776q.04994.50782.10036,1.01567a.16178.16178,0,0,0,.0988.133c77.80863,32.31563,155.819,34.62567,233.70339,22.07082,42.60566-6.868,71.47137-47.5787,63.23923-89.94193q-.1929-.99273-.37464-1.98382C697.95493,360.77379,636.16086,312.90742,566.99576,317.31074Z" transform="translate(-229.30296 -317.03009)" fill="#a9aff5"/><path d="M607.35,418.7q-.01492,3.31494-.02,6.63c-.02-2.18-.02-4.39-.02-6.63,0-.62,0-1.25.01-1.89.01-2.19.02-4.4.05-6.64-.01,2.21-.01,4.42-.02,6.64Z" transform="translate(-229.30296 -317.03009)"/><path d="M567.54,608.04c-14.36-.09-32.36-.85-54.79-1.79-17.05-.71-36.66-1.53-59.19-2.23-207.72,2.54-171.91,38.14-175.58-173.17q.3,3.615.56,7.31c6.1,87.25,79.19,154.33,166.65,153.72q33.75-.24,67.5.85,20.79.645,41.53,1.83,9.45008.525,18.89,1.17a2.2577,2.2577,0,0,0,.26-.01,35.39105,35.39105,0,0,0,34.38-35.6q-.33-38.16-.42-76.36-.03-11.64-.03-23.29-.015-17.58.03-35.14c.07,12.32.42,23.82.95,34.57q.63,12.555,1.56,23.74C618.51,590.6,642.54,608.51,567.54,608.04Z" transform="translate(-229.30296 -317.03009)"/><path d="M483.28363,474.81337c-20.96469-3.71518-37.24043,4.94825-50.86,20.22079C449.93158,493.539,471.749,485.68739,483.28363,474.81337Z" transform="translate(-229.30296 -317.03009)"/><path d="M273.0224,432.52138c104.73873-12.57255,214.69972-6.88215,318.07678-26.40926-61.82207-3.17091-137.72716-13.25534-204.75584-13.811C350.47564,419.02856,313.33642,419.5774,273.0224,432.52138Z" transform="translate(-229.30296 -317.03009)"/><path d="M664.83,337.53c-.12,23.95-.79,41.8-4.27,54.6a44.19533,44.19533,0,0,1-5.05,12.07c-7.79,12.31-22.05,16.32-48.16,14.5h-.04c-7.82-.55-16.7-1.61-26.78-3.14,10.02.79,18.93,1.25,26.79,1.25h.03c20.46-.01,33.86-3.21,41.55-12.27a31.19238,31.19238,0,0,0,6.14-12.08c3.05-10.91,2.74-26.22-.22-47.3a2352.77084,2352.77084,0,0,0-265.16,1.8c-48.06,9.93-115.61-5.52-153.32995,26.39-.08.3-.15.6-.22.91-3.35,14.32-2.74,41.8,9.37,51.02-14.43-8.06-21.4-32.43-11.65-51.95,7.99-16,27.23-28.73,62.8-26.54C417.84,328.21,542.52,325.88,664.83,337.53Z" transform="translate(-229.30296 -317.03009)"/><path d="M245.48,425.28a21.40557,21.40557,0,0,0,17.43,1.57C255.45,429.51,249.75,428.53,245.48,425.28Z" transform="translate(-229.30296 -317.03009)"/><path d="M842.35,477.7q-.01492,3.31494-.02,6.63c-.02-2.18-.02-4.39-.02-6.63,0-.62,0-1.25.01-1.89.01-2.19.02-4.4.05-6.64-.01,2.21-.01,4.42-.02,6.64Z" transform="translate(-229.30296 -317.03009)"/><path d="M688.56,663.02C532.67,664.93,513.94,685.45,512.75,606.25q-.09-6.33-.06-13.52,20.79.645,41.53,1.83a166.24156,166.24156,0,0,0,125.97,56.32q64.02-.45006,127.92,3.85a2.2577,2.2577,0,0,0,.26-.01,35.39105,35.39105,0,0,0,34.38-35.6q-.6-67.41-.42-134.79C843.6,689.66,920.18994,670.23,688.56,663.02Z" transform="translate(-229.30296 -317.03009)"/><path d="M718.28363,533.81337c-20.96469-3.71518-37.24043,4.94825-50.86,20.22079C684.93158,552.539,706.749,544.68739,718.28363,533.81337Z" transform="translate(-229.30296 -317.03009)"/><path d="M826.1,465.11c-70.28,13.28-143.6,14.9-216.25995,18.53-.84.04-1.67.08-2.51.12q-.03-11.64-.03-23.29c.33-.18.65-.37.98-.57a132.61342,132.61342,0,0,0,13.06-8.6C688.37,451.86,764.28,461.94,826.1,465.11Z" transform="translate(-229.30296 -317.03009)"/><path d="M899.83008,396.53C899.49,461.18,895.21,481.39,842.35,477.7h-.04c-7.82-.55-16.7-1.61-26.78-3.14,10.02.79,18.93,1.25,26.79,1.25h.03c44.17-.02,55.44006-14.9,47.47009-71.65C811.82,400.35,733.57,400.26,655.51,404.2c-2.2.1-4.41.22-6.61.34a31.19238,31.19238,0,0,0,6.14-12.08c1.84-.11,3.68-.23,5.52-.33A1543.65752,1543.65752,0,0,1,899.83008,396.53Z" transform="translate(-229.30296 -317.03009)"/></svg>