<svg xmlns="http://www.w3.org/2000/svg" data-name="Layer 1" width="875.34985" height="392.99697" viewBox="0 0 875.34985 392.99697" xmlns:xlink="http://www.w3.org/1999/xlink"><path d="M308.42951,379.54111c-6.52587-21.43409,5.38359-46.848,26.031-55.54819s47.15338.52661,57.93522,20.16737c.41616-20.891,20.8759-39.14341,41.67877-37.18228s37.49106,23.71562,33.9957,44.31629c4.54771-16.1964,24.65543-25.94809,40.18954-19.49081s22.804,27.58937,14.53031,42.237A249.8369,249.8369,0,0,1,403.29269,480.48489c-16.03255,6.755-33.99385-6.93722-41.29075-22.73049S353.65461,423.84,346.324,408.06228,320.95,378.66223,308.42951,379.54111Z" transform="translate(-161.86116 -253.33184)" fill="#a9aff5"/><path d="M678.74082,612.443c15.29665-16.30639,17.72591-43.22741,5.59547-62.00873,19.14894-4.67091,40.20026,13.1254,38.78105,32.78462S698.309,617.46619,678.74082,612.443Z" transform="translate(-161.86116 -253.33184)" fill="#a9aff5"/><path d="M826.81422,451.73871c21.19166-11.19934,43.65481-22.70523,67.60647-21.79458s49.01573,19.32912,48.06392,43.27919c-.57868,14.561,7.83,27.8374,16.55081,39.51246s18.3934,23.5094,21.04187,37.83925-4.9763,31.80289-19.3748,34.0483c-16.16946,2.52159-28.82295-14.93663-31.16207-31.13349s1.22754-33.08588-3.114-48.86437-22.33765-29.9834-36.45776-21.711a44.27846,44.27846,0,0,1-44.6632-.50791C831.9928,474.195,823.79858,458.33044,826.81422,451.73871Z" transform="translate(-161.86116 -253.33184)" fill="#a9aff5"/><path d="M212.3441,294.98228c-12.72339,11.95022-5.29647,35.98592,10.75272,42.85006s35.33337-.26074,47.6704-12.60944,19.24366-28.9635,25.85177-45.11978a16.29256,16.29256,0,0,0-24.12839-19.7168C249.69176,275.6122,223.37068,284.62576,212.3441,294.98228Z" transform="translate(-161.86116 -253.33184)" fill="#a9aff5"/><path d="M376.3404,509.863c-2.45214-10.45813-7.62646-20.04908-13.59472-28.902-9.98-13.96472-21.98682-26.35657-33.52539-39.02265,5.46435,7.5669,10.84375,15.19483,16.35205,22.73029,6.59033,8.88989,13.01562,17.94122,18.02978,27.835a78.56577,78.56577,0,0,1,9.53321,36.43079c.15966,3.47082.14062,6.84063-.03418,10.15344-3.27637-3.103-6.58057-6.17841-10.01856-9.10242-12.04687-9.94818-25.83887-17.47644-38.89551-25.97729-17.96826-11.61548-37.25439-22.38916-58.76513-25.28028a138.14406,138.14406,0,0,0-22.24951-1.28741c-5.86475.11761-11.82276.67157-17.34131,2.78a47.17826,47.17826,0,0,0-11.35474,6.33166c-4.99829,3.62085-7.60767,5.50281-11.62622,8.87189-17.814,14.55951-30.10156,34.32715-40.989,54.30371,8.11254-10.8883,15.10522-20.8457,24.14819-30.89081a189.70509,189.70509,0,0,1,26.51294-23.977,118.68489,118.68489,0,0,1,10.72876-7.34771c.88183-.46143,1.74658-.95917,2.66748-1.33991.25586-.09393.57422-.23572.78906-.33734,9.60254-3.649,18.10059-2.971,29.19336-2.54395,24.37158,1.35383,42.59082,11.02179,64.7002,24.92957,12.3833,7.59973,25.53808,13.853,37.96826,21.3703,4.97021,3.16138,9.71386,6.65741,14.498,10.09137-.72314,12.26178-3.71972,23.7229-8.89013,36.24615.12842-.37121-1.65674,3.41761-2.09326,4.33332-1.76319,3.41534-3.70459,6.72461-5.79444,9.95013A125.13949,125.13949,0,0,1,346.814,602.2163,96.99442,96.99442,0,0,1,315.76765,626.779c-5.34375-.40967-10.708-.58111-16.0625-.74084-4.52783-.08026-9.1333-.42646-13.58008.62787-3.77344.78643-7.124,2.75622-10.60107,4.32751-1.99317.79193-6.53125,1.59277-8.18164.11884-5.8916-3.8935-10.875-11.77973-15.99659-19.193-2.37158-3.158-3.86279-7.23987-7.18408-9.53851-5.42041-2.51941-6.80468,5.03393-7.938,8.72259-.17138.58-.38232,1.14789-.60351,1.71082a7.10339,7.10339,0,0,1-.40772.70886l-.03418.03675c-.043.02508-.084.05206-.12793.07543-.04638.01636-.08935.03132-.15429.05494a8.55635,8.55635,0,0,1-3.8291.15118c-1.4961-.32935-3.12549-.7373-4.54.07556-3.63819,2.15546-2.69141,5.327-3.78711,7.50977-2.77588,6.10565-6.19727,10.868-12.09644,14.43548-6.99731,4.55512-14.64721,6.24793-22.53564,10.08258-2.554,1.05683,1.74341-.38256,2.67407-.57611,7.7146-2.21771,15.86719-3.23,22.88062-7.39142,6.55932-3.49023,13.3103-11.64965,14.86108-18.98309l.00732-.0216c5.55811,1.55023,11.63526,1.08007,13.07911-5.619.34228-1.19226.73339-2.49488,1.10937-3.63379,2.92627,4.50616,7.66211,12.20337,11.37891,16.75421,4.47656,5.83533,10.70849,13.10266,18.90625,10.88312,5.18359-.82508,10.34326-5.403,13.68408-6.21228,4.96435-1.64722,8.35254-1.475,14.01416-2.07392,7.51758-.64135,15.03955-1.39227,22.5874-1.53308-2.31641-.30163-4.63965-.52972-6.96728-.7157a87.444,87.444,0,0,0,31.833-19.97967c8.75586-8.34186,16.42481-17.95935,21.25586-29.11536a121.79163,121.79163,0,0,0,8.83789-31.55224A108.9889,108.9889,0,0,0,376.3404,509.863Z" transform="translate(-161.86116 -253.33184)"/><path d="M465.002,475.17016c-9.39843,8.09185-19.67724,15.62011-27.01367,25.743a73.72381,73.72381,0,0,0-8.91406,23.91381,150.63822,150.63822,0,0,0,.81494,51.93488c2.23438,12.356,6.40821,23.72131,16.96924,31.334,4.91357,4.11383,11.26465,5.569,17.27393,7.32679-6.27344-2.72528-12.82129-5.36469-17.333-10.74585-8.03613-7.77253-10.32227-19.02326-11.78174-29.67878-1.53809-10.23522-2.73877-28.69982-1.2666-41.757.8501-10.05909,3.88037-21.5456,9.91894-30.6153,4.2837-5.654,14.7417-14.72656,21.79786-21.29034,13.4038-12.043,25.25732-25.653,37.28515-39.03528C489.98054,453.04125,477.91365,464.59368,465.002,475.17016Z" transform="translate(-161.86116 -253.33184)"/><path d="M301.89021,453.34526c-4.27637-8.01208-6.69824-16.03485-6.33545-25.52813.03857-5.24219,2.09424-9.855,5.52588-14.60535a201.31612,201.31612,0,0,1,13.76221-15.47668,138.3867,138.3867,0,0,0-14.70362,11.90319c-14.77734,12.63758-11.43408,35.53534-.23144,49.43036,6.72265,9.23761,17.47168,13.49262,27.92578,17.02637C316.75544,469.8684,307.85456,464.73308,301.89021,453.34526Z" transform="translate(-161.86116 -253.33184)"/><path d="M353.30085,314.80144a82.98463,82.98463,0,0,0-20.54-6.82233c-10.88769-1.91558-22.2539,1.24939-31.54394,6.98407-9.12647,5.66108-14.11084,15.19288-16.8252,25.29865-1.47314,5.80542-1.70068,11.85211-1.97021,17.81128-.22412,11.0589,2.353,21.86633,5.27978,32.45673-.87451-9.18842-1.96533-18.41712-1.24951-27.65485a125.87191,125.87191,0,0,1,3.01563-19.3476,64.07522,64.07522,0,0,1,5.74463-13.66815c5.60693-9.63592,17.52685-16.75,30.73584-18.6391,9.04736-.856,17.49023,1.11469,26.33935,3.356C352.94294,314.684,354.18025,315.24187,353.30085,314.80144Z" transform="translate(-161.86116 -253.33184)"/><path d="M390.77888,343.24517c-3.92627-3.925-8.03662-7.84955-13.12353-10.22217-7.68067-3.84955-16.90333-4.33527-24.11963.78772-10.20948,5.58111-18.00586,14.44641-24.1875,24.15893A151.88668,151.88668,0,0,1,342.73445,345.966a101.01232,101.01232,0,0,1,16.89453-9.75024c7.772-2.67377,15.86328-.24793,24.29492,5.26446a145.49094,145.49094,0,0,1,13.26318,9.86878c.49219.41394.96436.85174,1.44532,1.27789A69.7255,69.7255,0,0,0,390.77888,343.24517Z" transform="translate(-161.86116 -253.33184)"/><path d="M430.09529,305.18828c-6.66309-16.52112-17.20313-29.4859-36.19727-30.45654-13.65283-.676-26.89795,4.8479-38.08008,12.307-4.18945,2.98687-8.09375,6.35284-12.083,9.59649,5.59375-3.12622,10.97363-6.66613,16.832-9.29248a92.30388,92.30388,0,0,1,20.05468-6.28979c19.10694-3.24561,33.41553,3.841,43.72657,21.9956A287.00017,287.00017,0,0,1,437.94441,328.652,175.28511,175.28511,0,0,0,430.09529,305.18828Z" transform="translate(-161.86116 -253.33184)"/><path d="M449.39119,357.77184c-5.38526-7.03113-14.95362-12.0755-23.6709-8.31116-5.292,1.90973-9.44825,5.8877-13.83594,9.26618,4.72607-2.16547,9.127-5.19068,14.19678-6.50855,7.81933-2.63019,16.47119,1.91113,21.71093,6.55164a44.85321,44.85321,0,0,1,5.56739,5.91235A32.43069,32.43069,0,0,0,449.39119,357.77184Z" transform="translate(-161.86116 -253.33184)"/><path d="M404.76863,383.51452c-6.85791-3.22626-14.13526-6.11371-21.83838-5.95618-9.56592.186-18.55469,5.07269-25.26319,11.68268a66.8297,66.8297,0,0,0-12.27832,15.77935c-2.94824,5.49115-4.77636,11.49311-6.9541,17.3125,3.47461-5.76049,6.51416-11.80731,10.62354-17.1571A96.6266,96.6266,0,0,1,363.524,391.26915c12.1665-8.626,21.91357-10.66345,38.67871-5.01751,6.64941,1.99939,12.43262,3.93988,18.24365,7.4151C417.39216,390.17693,410.12214,385.88677,404.76863,383.51452Z" transform="translate(-161.86116 -253.33184)"/><path d="M423.96736,419.44066a30.82188,30.82188,0,0,0-20.41455-4.20392c-9.91407,1.51008-17.2417,11.32068-23.47168,18.45435,6.36718-4.86249,12.35888-10.27277,19.542-13.4397,5.55078-1.931,11.65674-1.88257,17.4873-.80023a37.15,37.15,0,0,1,12.84034,5.15656c.11914.07037.2373.14007.355.21112A35.84621,35.84621,0,0,0,423.96736,419.44066Z" transform="translate(-161.86116 -253.33184)"/><path d="M521.01228,324.52745c-1.148-10.24768-7.76221-18.93176-15.18018-25.68835a46.75064,46.75064,0,0,0-10.189-7.25989c-.8457-.48156-4.53028-2.111-5.24854-2.43-4.915-2.09363-9.91259-4.14655-15.24267-4.87219-5.667-1.04456-11.42871-.2085-16.95362,1.21338-10.58105,2.3587-20.16162,7.61-29.65527,12.65924,14.38965-5.04572,31.22412-10.47852,43.33447-8.53113,6.39356,1.21771,10.13575,3.02942,14.56787,5.04681a67.646,67.646,0,0,1,11.81836,6.56519c6.24073,4.72674,16.00342,13.57544,18.30225,23.41052,2.26953,9.14966,2.93018,15.53589,3.35059,25.35333A85.159,85.159,0,0,0,521.01228,324.52745Z" transform="translate(-161.86116 -253.33184)"/><path d="M490.3946,289.14922c.06885.02924.1377.058.20606.08728C490.2115,289.06737,490.19441,289.06029,490.3946,289.14922Z" transform="translate(-161.86116 -253.33184)"/><path d="M496.66755,364.38085a65.5936,65.5936,0,0,0-10.94189-8.23267,91.76,91.76,0,0,0-11.74951-4.99347c3.45849,2.254,7.06933,4.29248,10.34765,6.81031a101.75517,101.75517,0,0,1,10.458,10.10546,33.77407,33.77407,0,0,1,5.5498,8.33368,28.19244,28.19244,0,0,1,1.56934,14.586,99.00334,99.00334,0,0,1-3.33789,14.03729c-.16162.436-.26465.73182.125.05243a61.3063,61.3063,0,0,0,5.05322-10.19812C508.44978,383.69219,505.91316,372.30053,496.66755,364.38085Z" transform="translate(-161.86116 -253.33184)"/><path d="M543.45466,403.82158a57.12533,57.12533,0,0,0-6.6167-16.667c-.53369-.96094-.00342.28424.10694.74091,2.28271,7.92968,3.42382,14.70867,2.71679,23.06121-1.69238,12.81635-8.13867,26.30274-16.209,39.25653-2.78711,4.436-5.064,8.6753-8.54981,12.106-5.40625,4.81018-12.19531,6.88043-18.96777,9.23267,9.52686-1.14765,20.00147-3.01459,26.41748-10.84729,8.63818-10.12409,16.59326-21.37494,19.92139-34.44C544.22566,418.97051,545.2032,411.25542,543.45466,403.82158Z" transform="translate(-161.86116 -253.33184)"/><path d="M470.72419,402.2755c-4.93652-2.95709-10.94092-3.49945-16.43554-4.93066,4.69336,2.65674,10.25293,4.36841,14.50293,7.43554a19.45276,19.45276,0,0,1,5.63623,12.58313c.08691,3.11652-.65235,5.79828-1.32471,9.03931-.37695,1.6806-.82373,3.34552-1.30811,4.99762a43.21706,43.21706,0,0,0,2.26221-3.905c1.52149-3.14837,3.06348-6.42132,3.40869-9.94092A17.52931,17.52931,0,0,0,470.72419,402.2755Z" transform="translate(-161.86116 -253.33184)"/><path d="M674.647,619.493c-.57128-.162-1.1416-.32812-1.71435-.48553-2.73047-.80854-5.49854-1.44648-8.28076-2.02283a55.46626,55.46626,0,0,0,3.32861-7.14148,43.95934,43.95934,0,0,0,1.54736-11.44928c-.50146-4.57806-2.53222-8.83667-4.17382-13.09454q-.50612-1.221-1.03077-2.43433.45045,2.28269.89893,4.5658c.61719,3.92968,1.92139,7.84362,1.77441,11.84607-.31152,3.34332-.43457,6.71582-.93847,10.03619-.5791,2.54053-1.34912,5.03278-2.08789,7.53265-3.84571-.78247-7.71485-1.4613-11.5503-2.29919-11.94189-2.47247-19.1875-7.558-30.563-11.32691-9.14649-3.20867-18.9292-2.91662-28.46582-3.677-5.21436-.31335-10.62012-.76965-15.69385.749a65.10585,65.10585,0,0,1-12.667,3.52209,33.429,33.429,0,0,1-3.99024.17517c-.61914.01233-2.7749-.2149-3.24072-.25323a81.56955,81.56955,0,0,1-16.91553-4.60486c-5.82471-2.085-12.53467-6.2265-18.5459-2.55414-8.24658,6.08264-14.55371,13.6568-21.64795,15.77783-2.2041.61682-2.92578.41516-6.34521.24787-2.8335-.09827-5.67041-.05506-8.50342.06811a121.32249,121.32249,0,0,0-27.76709,5.0238,134.02125,134.02125,0,0,1,35.585-.45617c12.50781,3.74859,24.541-8.73511,31.8501-14.919,2.66943-2.67663,10.78369,2.57105,19.166,5.27991,5.90625,2.00714,12.06543,3.60815,18.34034,3.61578a46.312,46.312,0,0,0,12.00537-2.30584c1.60937-.51026,3.15576-1.19068,4.7373-1.77472a13.67007,13.67007,0,0,1,3.749-.82416c5.20166-.351,10.40429.34326,15.5957.61389,6.30371.3335,12.32373.51135,16.28418,1.34106,8.73877,1.49549,16.73047,5.56043,25.28027,7.74317,7.41065,2.22125,15.11865,2.29205,22.79395,2.61615-.11084.3913-.227.78125-.333,1.17377q.31567-.57972.63184-1.16132c2.75976.11908,5.51464.27423,8.249.579Q673.32917,619.34688,674.647,619.493Z" transform="translate(-161.86116 -253.33184)"/><path d="M271.85749,279.85662c-1.62939-14.092-12.41552-27.37378-27.543-26.4823-7.97509.18774-15.49365,2.73083-22.67773,6.06537a37.91159,37.91159,0,0,0-6.001,1.42193,41.978,41.978,0,0,0-12.6018,7.14954,121.47077,121.47077,0,0,1,12.13989-5.35571c-1.648.86645-3.28125,1.74865-4.89722,2.63079a135.17472,135.17472,0,0,1,23.24536-7.22815,38.63305,38.63305,0,0,1,7.83936-.67077c3.36621.06561,5.8584.02923,8.90381,1.12579,9.66357,3.3009,14.16406,13.35065,15.46973,20.58209,1.13525,5.90686-1.59375,14.69452-2.98536,18.18616-3.29931,6.94281-6.08789,11.77582-10.85254,16.04883-2.44677,2.172-7.18164,4.11053-12.5498,5.81494-7.83936,2.70966-13.25586,2.9599-22.17383,2.5744-7.18432-.51855-18.58911-6.19824-23.38306-15.667-2.50512-4.57227-2.84936-10.14288-2.0061-15.38171a97.58511,97.58511,0,0,1,2.77954-14.48047,82.96739,82.96739,0,0,0-5.6626,20.28186A24.79294,24.79294,0,0,0,194.30085,313.82a34.03713,34.03713,0,0,0,22.49756,13.40442c12.27,1.48809,24.78418-1.49134,35.68213-7.13038C264.04011,312.94481,273.17634,293.31676,271.85749,279.85662Z" transform="translate(-161.86116 -253.33184)"/><path d="M1037.211,632.67559q-.35083-.14531-.70117-.291a93.44959,93.44959,0,0,0-13.05762-4.56274c-2.69824-7.28186-5.6001-14.50421-7.57568-22.02735-3.61084-13.79181-6.28809-27.82714-10.35645-41.498-5.33691-17.21186-12.00928-33.947-18.28515-50.82325-8.10792-24.23016-16.03614-48.75006-29.147-70.83868a208.81323,208.81323,0,0,0-16.39013-24.43768c-7.02-9.56537-14.41114-16.1247-26.55762-17.91815-7.10547-1.2533-14.19043.68048-21.0918,2.22723-10.063,2.42413-20.0664,5.10278-30.01465,7.961a511.68783,511.68783,0,0,0-58.35107,20.70819c-10.53418,4.50329-20.82031,9.55694-31.14307,14.52057-4.73584-5.12891-9.36084-10.35572-13.70215-15.81775-4.28125-5.16718-12.23632-18.16266-17.72949-25.9585-5.30273-7.624-10.98242-15.08545-17.91357-21.31048-9.17627-8.101-20.38233-14.26233-32.50244-16.44123-17.89209-3.19061-30.48243-.99951-47.39161,5.077-15.7998,5.49078-31.64355,10.99939-46.61084,18.53479-17.76513,8.93542-34.65576,19.494-52.44775,28.38177,18.55127-6.50946,36.15137-15.30267,54.01611-23.43762a410.466,410.466,0,0,1,41.147-16.23785c8.07422-3.03839,21.15234-6.98609,27.00683-7.66333,26.57178-2.7782,47.61426,6.49371,63.96485,27.96173,6.64941,8.41266,16.20507,24.75073,24.47314,35.39484,9.54785,12.135,20.59961,22.98993,30.95752,34.41906,8.3877,8.73786,13.53613,19.9325,19.59717,32.13184,7.56689,15.15362,11.84424,29.198,18.11914,46.03778,4.05908,10.82214,9.48291,21.05145,14.00244,31.67627,4.71,10.358,8.46,21.23157,14.03223,31.16638-.51367-.09936-1.03076-.19562-1.53907-.30023-7.08593-1.35529-14.30078-3.58026-21.57177-2.62195-3.46973.41412-6.60694,2.123-10.03272,2.74524-.501.10687-1.90429.3454-2.24267.41382-7.14258.86072-14.29785-.74738-21.46143-.36389-5.352-.18152-9.96045,1.783-15.03564,2.97363a157.73593,157.73593,0,0,1-18.46924,2.61395c-15.9707,1.08765-23.90479-2.19629-39.51074-3.36609-15.52246-.851-31.01319,1.82587-45.88672,6.12787,14.92773-2.1853,30.11328-3.003,45.12646-1.195,6.502.72131,16.4585,3.47076,25.09863,4.29913a90.5845,90.5845,0,0,0,24.86963-.74237,116.374,116.374,0,0,0,13.18946-2.59937c4.86572-1.58288,5.89111-2.02606,10.29-2.07617,5.76757-.26233,11.48242.68939,17.23925.75818a46.434,46.434,0,0,0,15.6626-3.11969c10.62207-2.69238,26.1792,5.76166,41.123,4.09521,5.228-.57916,6.82666-1.4273,11.0039-1.2702,5.84034.05963,12.16407,2.06116,19.77344,3.52545a176.19986,176.19986,0,0,0,20.86426,2.97553c4.42822.4115,8.88721.11841,13.30713.61035,5.97266.7984,11.4165,3.59766,17.11963,5.39575a36.86149,36.86149,0,0,0,16.18261,1.67438c5.9126-.83038,10.17432-2.2605,14.66651-2.32617,6.87207-.30066,11.06055,1.09784,18.57617,2.15527,6.42188,1.03211,12.59473.147,18.99512-.26892,1.09717.031,2.18847.12738,3.27637.25531.05615.08746.11572.18414.17138.27-.03174-.0874-.06445-.17444-.09619-.26184a114.618,114.618,0,0,1,12.09277,2.4682Q1036.77619,632.56566,1037.211,632.67559Zm-15.36865-5.19934c-3.92774-.54474-11.43555-.17566-13.8877-.73841-5.87451-.75341-11.48926-2.71588-17.29883-3.772a45.5862,45.5862,0,0,0-10.498-.5188c-3.83252.29651-7.56934,1.23657-11.3711,1.7525-.80127.05457-3.71386.2829-4.15429.21009a27.26517,27.26517,0,0,1-5.04786-.41431,58.65241,58.65241,0,0,1-10.29052-3.07989c-5.23145-2.10712-10.60547-3.91565-16.28223-4.2099a151.85313,151.85313,0,0,1-20.15478-1.5658c-3.39014-.42267-12.68116-2.243-18.75489-3.6377-7.16113-1.76788-14.62109-2.62164-21.87011-.85961-5.06006.98956-11.7168.27941-18.05957-.9123-3.5625-9.29468-5.75245-19.071-8.97461-28.48926-4.01123-13.0296-9.79981-25.39617-14.4795-38.18334-3.15429-8.39454-5.958-16.91889-9.17382-25.28949-3.26221-8.408-7.09229-16.58674-11.11426-24.65516-3.11865-6.07061-6.14112-12.21234-9.813-17.97308a122.7058,122.7058,0,0,0-11.81152-14.3241c-4.648-4.9215-9.3501-9.80877-13.95313-14.78418,18.77832-6.105,37.42627-12.60229,56.28467-18.46307,14.72217-4.85352,29.43555-9.76312,44.44433-13.67236,7.811-2.059,15.61768-4.14771,23.51026-5.87317,7.92676-1.70685,11.76953-2.41791,18.707-.42255,10.27051,2.36273,16.24365,11.34784,23.21924,20.86011a233.19434,233.19434,0,0,1,24.45019,44.08c3.75244,8.91876,10.05127,27.557,14.07032,39.93548,4.81494,14.03052,10.81543,27.62671,15.28418,41.78339,5.28125,15.07757,9.26855,30.569,14.62744,45.61981,2.9209,9.10712,8.74853,20.34277,13.27929,27.7876C1022.43367,627.60363,1022.13972,627.532,1021.84236,627.47625Z" transform="translate(-161.86116 -253.33184)"/><path d="M668.22517,397.25835c-8.9585,2.75134-17.62451,6.36847-26.459,9.48322-22.28516,7.7948-44.37745,16.555-64.73243,28.6239,18.51123-7.23719,37.65479-12.75122,55.99073-20.44617,12.09814-4.78,23.47021-11.09332,34.93017-17.19342.646-.32159,1.30371-.61761,1.96973-.89423C669.35554,396.96581,668.78425,397.08831,668.22517,397.25835Z" transform="translate(-161.86116 -253.33184)"/><path d="M697.76765,424.402c-9.5791,3.96344-20.67969,7.37066-30.84473,10.92962-15.50244,5.35022-31.14013,10.30475-46.60009,15.77552,13.89941-2.46741,27.84668-4.91364,41.31054-9.25092,13.5835-4.63818,27.063-10.23846,39.05469-18.20673q1.07081-.74752,2.11768-1.52929Q700.31916,423.33187,697.76765,424.402Z" transform="translate(-161.86116 -253.33184)"/><path d="M826.232,576.81347c-5.436-9.572-11.876-18.55091-16.97852-28.32178-4.23291-8.11066-5.86816-13.67121-9.95654-22.53473-5.46582-11.63226-14.32569-21.28149-23.8003-29.805a216.81363,216.81363,0,0,0-26.87988-21.4325,285.33555,285.33555,0,0,1,24.1001,24.21253c7.03467,7.7489,11.44873,12.88269,16.73584,21.579,5.8374,9.81085,6.56933,14.87494,11.99219,26.04626,4.189,8.37738,9.74951,15.99036,15.48925,23.36176a173.42368,173.42368,0,0,1,17.25879,25.58337q.38966.68646.77344,1.37543A132.45168,132.45168,0,0,0,826.232,576.81347Z" transform="translate(-161.86116 -253.33184)"/><path d="M800.11531,581.79815c-6.41944-10.189-12.15577-20.79517-18.66211-30.93506-4.57276-7.27021-9.13672-14.62647-14.9419-20.99494a95.20722,95.20722,0,0,0-16.69385-14.79535,183.64874,183.64874,0,0,0-16.15478-8.87011c5.11084,3.90875,9.70215,7.17236,14.20508,11.00152a111.24085,111.24085,0,0,1,12.8916,13.90772c4.05713,4.7821,8.7998,12.63489,13.35254,19.48059,7.148,10.46136,14.48535,20.87134,22.83154,30.41815,2.69287,2.94556,5.48926,5.79645,8.353,8.57532Q802.65975,585.723,800.11531,581.79815Z" transform="translate(-161.86116 -253.33184)"/><path d="M994.55915,586.68255c-3.75586-9.07825-5.43847-18.82355-9.00537-27.955-5.81494-14.51117-11.89795-26.21649-17.00634-39.35315-6.34473-15.5976-7.082-33.08338-14.68213-48.23828-4.03272-8.08686-9.76758-15.13928-15.70069-21.8974-4.14209-4.37281-8.53662-11.24024-15.061-11.62976-6.397.12732-12.61133,1.94909-18.84033,3.24188-9.16651,2.185-18.34961,4.36584-27.3877,7.03955a200.393,200.393,0,0,1-19.29883,5.5827c-14.70605,2.92938-29.60644,4.78107-44.41943,7.079,19.8291-.502,40.08056.15247,59.38672-5.045,14.48974-4.06647,35.647-9.17127,47.21972-11.243.602-.16657,3.07764-.17438,3.564-.22376.0581.0116.11719.01673.1748.03009.1919.07508.31153.11756.39209.14337a8.57849,8.57849,0,0,1,.88379.51868c3.65918,2.47095,10.167,10.61084,14.71289,16.03638a83.16859,83.16859,0,0,1,7.04,10.26861,70.64565,70.64565,0,0,1,3.62158,7.30017c4.93653,12.918,6.63916,26.81629,11.13623,39.86921,3.04395,7.45629,6.02051,14.94415,9.32178,22.29193,3.16162,6.83032,6.67334,13.49164,9.83789,20.32129,3.17774,6.35656,5.03223,13.39019,8.73584,21.10443a245.22266,245.22266,0,0,0,12.875,23.07318C999.43708,598.94164,996.94636,592.977,994.55915,586.68255Z" transform="translate(-161.86116 -253.33184)"/><path d="M353.16023,541.84093c-9.5874-4.8916-18.73389-10.54236-27.813-16.30237-19.56885-11.1076-44.54-16.3584-66.957-16.06817-13.10889.74011-23.96924,8.95154-34.69873,15.694-13.53833,8.84771-26.63233,18.35406-39.41065,28.26312,13.13037-7.40521,26.22681-14.87061,39.36036-22.27081,8.45166-4.65332,18.84814-11.0821,25.563-13.54853,15.04493-6.05706,49.65869,2.30646,67.86084,9.16895,5.2378,1.97619,11.20752,5.333,17.61231,8.38489,6.64306,3.031,13.49707,5.57788,20.38379,7.99749.59375.20758,1.189.41181,1.7832.618Q354.99861,542.81676,353.16023,541.84093Z" transform="translate(-161.86116 -253.33184)"/><path d="M702.38972,583.28283a48.75741,48.75741,0,0,0-9.9585-13.834c-1.333-1.18756-2.8081-2.55957-4.7041-2.53363a3.2038,3.2038,0,0,0-2.62793,4.90595c4.05323,5.97033,6.69922,9.4754,7.68506,16.03259a37.924,37.924,0,0,1-.31592,9.93426c-2.33252,6.629-6.895,12.577-10.65722,18.61329,5.00927-5.45893,10.65527-10.78205,13.89258-17.53187a30.42566,30.42566,0,0,0,.49609-17.87683c1.21777,1.57874,2.36865,3.19989,3.4082,4.7923,4.27588,6.05371,5.52344,11.02808,3.32569,18.23193-.09034.421-.62256,1.75806-.13526.8097a21.3344,21.3344,0,0,0,3.05567-10.07019C705.963,590.67016,704.16462,586.86376,702.38972,583.28283Z" transform="translate(-161.86116 -253.33184)"/><path d="M944.77742,314.36242c-7.30225.53845-17.73633,1.16565-22.45411-.00013-13.15087-3.30951-24.36816-10.97326-38.07861-17.21624-9.96387-3.96631-20.59912-8.48523-31.51807-6.38294a63.52486,63.52486,0,0,0-19.87939,7.16577c-8.50488,4.60315-12.28418,7.34607-20.56787,6.88892-3.57813-.17975-8.28565-2.40363-12.38526-4.17517-5.14746-2.324-10.38281-4.46436-15.73779-6.26532-9.0625-2.7879-22.57812-6.44556-29.91943,1.49109-5.43555,5.39343-8.84424,12.33972-12.46973,18.98694-3.58594,6.52929-7.729,12.72717-11.71191,19.01611a226.18517,226.18517,0,0,0,14.49414-18.02161c4.709-6.678,7.63672-11.95306,13.73535-16.95941,6.61572-5.31268,22.13428.51788,33.57129,4.91248,3.71387,1.40387,10.87012,5.185,17.08984,6.67773a29.96564,29.96564,0,0,0,9.53565.08722c7.2622-1.0462,13.36377-5.57928,19.82275-8.73566,6.59229-3.17761,14.28662-5.88043,22.45117-5.48413,7.5835.81073,19.94971,5.5105,27.51367,9.61133,11.14747,5.80573,22.34571,12.652,34.999,14.37659,7.477.5263,14.918-.91126,22.27344-2.0788,10.47705-1.75006,20.88183-3.899,31.25293-6.18841C966.12214,312.83562,955.45466,313.666,944.77742,314.36242Z" transform="translate(-161.86116 -253.33184)"/><path d="M643.47517,488.18773c-11.32422,2.55609-22.36865,7.74976-30.88965,15.71619-.30615.31036-1.08008,1.16791-1.43945,1.57556a201.99239,201.99239,0,0,0-18.28223-13.98315c4.958,5.38586,10.15625,10.54413,15.125,15.9198,3.72315,4.90374,6.25928.0437,9.457-2.3844,3.00928-2.40778,6.90528-5.19165,10.90039-7.91217a113.9409,113.9409,0,0,1,15.74951-8.75385q.64674-.27933,1.292-.56085C644.75007,487.93126,644.109,488.04369,643.47517,488.18773Z" transform="translate(-161.86116 -253.33184)"/><path d="M813.22224,375.741c-1.58105.80224-3.9292,2.42175-5.16455,3.22479-.55518-.68335-1.11719-1.43372-1.84961-2.28412-4.02686-4.74969-8.32617-9.26178-12.647-13.74237,3.60058,5.82666,7.47168,11.48261,11.02832,17.336,2.16162,4.905,5.52832,2.15863,8.88965.34778a40.03707,40.03707,0,0,1,7.38769-2.85761c10.86084-3.6582,27.27832-7.68439,35.47754-10.74719C841.8404,368.50737,826.64119,369.63518,813.22224,375.741Z" transform="translate(-161.86116 -253.33184)"/><path d="M617.07771,320.6364c-5.96094,1.56885-11.99024,3.24573-17.45606,6.15338-5.67773,3.46381-10.98877,7.98853-14.33056,13.811-.294.53589-.54932,1.09277-.81543,1.64361a85.47521,85.47521,0,0,0-16.583-8.90094,151.61912,151.61912,0,0,1,15.89746,13.06238c1.96143,1.28357,3.50537-.611,4.36768-2.2323a24.15593,24.15593,0,0,1,2.50146-3.64148c4.2876-4.83258,8.77588-9.44482,14.10742-12.69195,4.44385-2.70648,9.05469-5.12549,13.68555-7.49481C618.96833,320.0855,617.30574,320.62029,617.07771,320.6364Z" transform="translate(-161.86116 -253.33184)"/></svg>